<mxfile host="app.diagrams.net" agent="Mozilla/5.0 (Windows NT 10.0; Win64; x64) AppleWebKit/537.36 (KHTML, like Gecko) Chrome/129.0.0.0 Safari/537.36 Edg/129.0.0.0" version="24.7.17">
  <diagram id="C5RBs43oDa-KdzZeNtuy" name="Page-1">
    <mxGraphModel dx="1722" dy="951" grid="1" gridSize="10" guides="1" tooltips="1" connect="1" arrows="1" fold="1" page="1" pageScale="1" pageWidth="827" pageHeight="1169" math="0" shadow="0">
      <root>
        <mxCell id="WIyWlLk6GJQsqaUBKTNV-0" />
        <mxCell id="WIyWlLk6GJQsqaUBKTNV-1" parent="WIyWlLk6GJQsqaUBKTNV-0" />
        <mxCell id="dO6GdO4cNxpikTKNABMN-1" value="" style="edgeStyle=orthogonalEdgeStyle;rounded=1;orthogonalLoop=1;jettySize=auto;html=1;fillColor=#dae8fc;strokeColor=#6c8ebf;" edge="1" parent="WIyWlLk6GJQsqaUBKTNV-1" source="WIyWlLk6GJQsqaUBKTNV-3" target="dO6GdO4cNxpikTKNABMN-0">
          <mxGeometry relative="1" as="geometry" />
        </mxCell>
        <mxCell id="WIyWlLk6GJQsqaUBKTNV-3" value="随机派生根密钥对(sk&lt;sub&gt;root&lt;/sub&gt;,pk&lt;sub&gt;root&lt;/sub&gt;)" style="rounded=1;whiteSpace=wrap;html=1;fontSize=12;glass=0;strokeWidth=1;shadow=0;fillColor=#dae8fc;strokeColor=#6c8ebf;" parent="WIyWlLk6GJQsqaUBKTNV-1" vertex="1">
          <mxGeometry x="160" y="80" width="120" height="40" as="geometry" />
        </mxCell>
        <mxCell id="dO6GdO4cNxpikTKNABMN-3" value="" style="edgeStyle=orthogonalEdgeStyle;rounded=1;orthogonalLoop=1;jettySize=auto;html=1;" edge="1" parent="WIyWlLk6GJQsqaUBKTNV-1" source="dO6GdO4cNxpikTKNABMN-0" target="dO6GdO4cNxpikTKNABMN-2">
          <mxGeometry relative="1" as="geometry" />
        </mxCell>
        <mxCell id="dO6GdO4cNxpikTKNABMN-0" value="将pk&lt;sub&gt;root&lt;/sub&gt;以及泄露随机数共享给接收方" style="whiteSpace=wrap;html=1;rounded=1;glass=0;strokeWidth=1;shadow=0;fillColor=#dae8fc;strokeColor=#6c8ebf;" vertex="1" parent="WIyWlLk6GJQsqaUBKTNV-1">
          <mxGeometry x="160" y="136" width="120" height="50" as="geometry" />
        </mxCell>
        <mxCell id="dO6GdO4cNxpikTKNABMN-5" value="" style="edgeStyle=orthogonalEdgeStyle;rounded=1;orthogonalLoop=1;jettySize=auto;html=1;fillColor=#d5e8d4;strokeColor=#82b366;" edge="1" parent="WIyWlLk6GJQsqaUBKTNV-1" source="dO6GdO4cNxpikTKNABMN-2" target="dO6GdO4cNxpikTKNABMN-4">
          <mxGeometry relative="1" as="geometry" />
        </mxCell>
        <mxCell id="dO6GdO4cNxpikTKNABMN-2" value="使用sk&lt;sub&gt;root&lt;/sub&gt;派生密钥sk&lt;sub&gt;i+1&lt;/sub&gt;作为种子派生密钥集合skset&lt;sub&gt;i+1&lt;/sub&gt;" style="whiteSpace=wrap;html=1;rounded=1;glass=0;strokeWidth=1;shadow=0;fillColor=#d5e8d4;strokeColor=#82b366;" vertex="1" parent="WIyWlLk6GJQsqaUBKTNV-1">
          <mxGeometry x="160" y="203" width="120" height="60" as="geometry" />
        </mxCell>
        <mxCell id="dO6GdO4cNxpikTKNABMN-9" value="" style="edgeStyle=orthogonalEdgeStyle;rounded=1;orthogonalLoop=1;jettySize=auto;html=1;fillColor=#d5e8d4;strokeColor=#82b366;" edge="1" parent="WIyWlLk6GJQsqaUBKTNV-1" source="dO6GdO4cNxpikTKNABMN-4" target="dO6GdO4cNxpikTKNABMN-8">
          <mxGeometry relative="1" as="geometry" />
        </mxCell>
        <mxCell id="dO6GdO4cNxpikTKNABMN-23" value="" style="edgeStyle=orthogonalEdgeStyle;rounded=1;orthogonalLoop=1;jettySize=auto;html=1;fillColor=#d5e8d4;strokeColor=#82b366;" edge="1" parent="WIyWlLk6GJQsqaUBKTNV-1" source="dO6GdO4cNxpikTKNABMN-4" target="dO6GdO4cNxpikTKNABMN-22">
          <mxGeometry relative="1" as="geometry" />
        </mxCell>
        <mxCell id="dO6GdO4cNxpikTKNABMN-4" value="构造隐蔽交易" style="whiteSpace=wrap;html=1;rounded=1;glass=0;strokeWidth=1;shadow=0;fillColor=#d5e8d4;strokeColor=#82b366;" vertex="1" parent="WIyWlLk6GJQsqaUBKTNV-1">
          <mxGeometry x="160" y="281" width="120" height="39" as="geometry" />
        </mxCell>
        <mxCell id="dO6GdO4cNxpikTKNABMN-11" value="" style="edgeStyle=orthogonalEdgeStyle;rounded=1;orthogonalLoop=1;jettySize=auto;html=1;fillColor=#d5e8d4;strokeColor=#82b366;" edge="1" parent="WIyWlLk6GJQsqaUBKTNV-1" source="dO6GdO4cNxpikTKNABMN-8" target="dO6GdO4cNxpikTKNABMN-10">
          <mxGeometry relative="1" as="geometry" />
        </mxCell>
        <mxCell id="dO6GdO4cNxpikTKNABMN-8" value="选择输入输出数量" style="whiteSpace=wrap;html=1;rounded=1;glass=0;strokeWidth=1;shadow=0;fillColor=#d5e8d4;strokeColor=#82b366;" vertex="1" parent="WIyWlLk6GJQsqaUBKTNV-1">
          <mxGeometry x="330" y="281" width="120" height="39" as="geometry" />
        </mxCell>
        <mxCell id="dO6GdO4cNxpikTKNABMN-13" value="" style="edgeStyle=orthogonalEdgeStyle;rounded=1;orthogonalLoop=1;jettySize=auto;html=1;fillColor=#d5e8d4;strokeColor=#82b366;" edge="1" parent="WIyWlLk6GJQsqaUBKTNV-1" source="dO6GdO4cNxpikTKNABMN-10" target="dO6GdO4cNxpikTKNABMN-12">
          <mxGeometry relative="1" as="geometry" />
        </mxCell>
        <mxCell id="dO6GdO4cNxpikTKNABMN-10" value="计算预期输入UTXO" style="whiteSpace=wrap;html=1;rounded=1;glass=0;strokeWidth=1;shadow=0;fillColor=#d5e8d4;strokeColor=#82b366;" vertex="1" parent="WIyWlLk6GJQsqaUBKTNV-1">
          <mxGeometry x="330" y="341" width="120" height="33" as="geometry" />
        </mxCell>
        <mxCell id="dO6GdO4cNxpikTKNABMN-15" value="" style="edgeStyle=orthogonalEdgeStyle;rounded=1;orthogonalLoop=1;jettySize=auto;html=1;fillColor=#d5e8d4;strokeColor=#82b366;" edge="1" parent="WIyWlLk6GJQsqaUBKTNV-1" source="dO6GdO4cNxpikTKNABMN-12" target="dO6GdO4cNxpikTKNABMN-14">
          <mxGeometry relative="1" as="geometry" />
        </mxCell>
        <mxCell id="dO6GdO4cNxpikTKNABMN-12" value="从skset&lt;sub&gt;i&lt;/sub&gt;持有的UTXO中选择最接近预期的作为输入" style="whiteSpace=wrap;html=1;rounded=1;glass=0;strokeWidth=1;shadow=0;fillColor=#d5e8d4;strokeColor=#82b366;" vertex="1" parent="WIyWlLk6GJQsqaUBKTNV-1">
          <mxGeometry x="330" y="395" width="120" height="60" as="geometry" />
        </mxCell>
        <mxCell id="dO6GdO4cNxpikTKNABMN-17" value="" style="edgeStyle=orthogonalEdgeStyle;rounded=1;orthogonalLoop=1;jettySize=auto;html=1;fillColor=#d5e8d4;strokeColor=#82b366;" edge="1" parent="WIyWlLk6GJQsqaUBKTNV-1" source="dO6GdO4cNxpikTKNABMN-14" target="dO6GdO4cNxpikTKNABMN-16">
          <mxGeometry relative="1" as="geometry" />
        </mxCell>
        <mxCell id="dO6GdO4cNxpikTKNABMN-14" value="在对输入进行签名时将秘密消息嵌入随机数中" style="whiteSpace=wrap;html=1;rounded=1;glass=0;strokeWidth=1;shadow=0;fillColor=#d5e8d4;strokeColor=#82b366;" vertex="1" parent="WIyWlLk6GJQsqaUBKTNV-1">
          <mxGeometry x="330" y="474" width="120" height="60" as="geometry" />
        </mxCell>
        <mxCell id="dO6GdO4cNxpikTKNABMN-19" value="" style="edgeStyle=orthogonalEdgeStyle;rounded=1;orthogonalLoop=1;jettySize=auto;html=1;fillColor=#d5e8d4;strokeColor=#82b366;" edge="1" parent="WIyWlLk6GJQsqaUBKTNV-1" source="dO6GdO4cNxpikTKNABMN-16" target="dO6GdO4cNxpikTKNABMN-18">
          <mxGeometry relative="1" as="geometry" />
        </mxCell>
        <mxCell id="dO6GdO4cNxpikTKNABMN-16" value="根据交易大小计算交易费以及实际输出总金额" style="whiteSpace=wrap;html=1;rounded=1;glass=0;strokeWidth=1;shadow=0;fillColor=#d5e8d4;strokeColor=#82b366;" vertex="1" parent="WIyWlLk6GJQsqaUBKTNV-1">
          <mxGeometry x="330" y="555" width="120" height="60" as="geometry" />
        </mxCell>
        <mxCell id="dO6GdO4cNxpikTKNABMN-21" value="" style="edgeStyle=orthogonalEdgeStyle;rounded=1;orthogonalLoop=1;jettySize=auto;html=1;fillColor=#d5e8d4;strokeColor=#82b366;" edge="1" parent="WIyWlLk6GJQsqaUBKTNV-1" source="dO6GdO4cNxpikTKNABMN-18" target="dO6GdO4cNxpikTKNABMN-20">
          <mxGeometry relative="1" as="geometry" />
        </mxCell>
        <mxCell id="dO6GdO4cNxpikTKNABMN-18" value="计算预期输出UTXO并将其放缩至实际输出金额" style="whiteSpace=wrap;html=1;rounded=1;glass=0;strokeWidth=1;shadow=0;fillColor=#d5e8d4;strokeColor=#82b366;" vertex="1" parent="WIyWlLk6GJQsqaUBKTNV-1">
          <mxGeometry x="330" y="635" width="120" height="60" as="geometry" />
        </mxCell>
        <mxCell id="dO6GdO4cNxpikTKNABMN-20" value="从skset&lt;sub&gt;i+1&lt;/sub&gt;中随机选择地址接收输出UTXO" style="whiteSpace=wrap;html=1;rounded=1;glass=0;strokeWidth=1;shadow=0;fillColor=#d5e8d4;strokeColor=#82b366;" vertex="1" parent="WIyWlLk6GJQsqaUBKTNV-1">
          <mxGeometry x="330" y="720" width="120" height="60" as="geometry" />
        </mxCell>
        <mxCell id="dO6GdO4cNxpikTKNABMN-24" style="edgeStyle=orthogonalEdgeStyle;rounded=1;orthogonalLoop=1;jettySize=auto;html=1;exitX=0;exitY=0.5;exitDx=0;exitDy=0;entryX=0;entryY=0.5;entryDx=0;entryDy=0;fillColor=#d5e8d4;strokeColor=#82b366;" edge="1" parent="WIyWlLk6GJQsqaUBKTNV-1" source="dO6GdO4cNxpikTKNABMN-22" target="dO6GdO4cNxpikTKNABMN-4">
          <mxGeometry relative="1" as="geometry">
            <Array as="points">
              <mxPoint x="120" y="389" />
              <mxPoint x="120" y="301" />
              <mxPoint x="160" y="301" />
            </Array>
          </mxGeometry>
        </mxCell>
        <mxCell id="dO6GdO4cNxpikTKNABMN-25" value="否" style="edgeLabel;html=1;align=center;verticalAlign=middle;resizable=0;points=[];rounded=1;" vertex="1" connectable="0" parent="dO6GdO4cNxpikTKNABMN-24">
          <mxGeometry x="-0.6856" y="-3" relative="1" as="geometry">
            <mxPoint x="6" y="3" as="offset" />
          </mxGeometry>
        </mxCell>
        <mxCell id="dO6GdO4cNxpikTKNABMN-27" value="" style="edgeStyle=orthogonalEdgeStyle;rounded=1;orthogonalLoop=1;jettySize=auto;html=1;fillColor=#d5e8d4;strokeColor=#82b366;" edge="1" parent="WIyWlLk6GJQsqaUBKTNV-1" source="dO6GdO4cNxpikTKNABMN-22" target="dO6GdO4cNxpikTKNABMN-26">
          <mxGeometry relative="1" as="geometry" />
        </mxCell>
        <mxCell id="dO6GdO4cNxpikTKNABMN-28" value="是" style="edgeLabel;html=1;align=center;verticalAlign=middle;resizable=0;points=[];rounded=1;" vertex="1" connectable="0" parent="dO6GdO4cNxpikTKNABMN-27">
          <mxGeometry x="-0.3" relative="1" as="geometry">
            <mxPoint y="-5" as="offset" />
          </mxGeometry>
        </mxCell>
        <mxCell id="dO6GdO4cNxpikTKNABMN-22" value="消息是否嵌入完成" style="rhombus;whiteSpace=wrap;html=1;rounded=1;glass=0;strokeWidth=1;shadow=0;fillColor=#d5e8d4;strokeColor=#82b366;" vertex="1" parent="WIyWlLk6GJQsqaUBKTNV-1">
          <mxGeometry x="160" y="357" width="120" height="63" as="geometry" />
        </mxCell>
        <mxCell id="dO6GdO4cNxpikTKNABMN-30" value="" style="edgeStyle=orthogonalEdgeStyle;rounded=1;orthogonalLoop=1;jettySize=auto;html=1;fillColor=#d5e8d4;strokeColor=#82b366;" edge="1" parent="WIyWlLk6GJQsqaUBKTNV-1" source="dO6GdO4cNxpikTKNABMN-26" target="dO6GdO4cNxpikTKNABMN-29">
          <mxGeometry relative="1" as="geometry" />
        </mxCell>
        <mxCell id="dO6GdO4cNxpikTKNABMN-26" value="将skset&lt;sub&gt;i&lt;/sub&gt;中未使用的UTXO转入银行地址集" style="whiteSpace=wrap;html=1;rounded=1;glass=0;strokeWidth=1;shadow=0;fillColor=#d5e8d4;strokeColor=#82b366;" vertex="1" parent="WIyWlLk6GJQsqaUBKTNV-1">
          <mxGeometry x="160" y="450" width="120" height="60" as="geometry" />
        </mxCell>
        <mxCell id="dO6GdO4cNxpikTKNABMN-29" value="使用sk&lt;sub&gt;i&lt;/sub&gt;作为输入密钥，泄露随机数作为签名随机数构造泄露交易" style="whiteSpace=wrap;html=1;rounded=1;glass=0;strokeWidth=1;shadow=0;fillColor=#d5e8d4;strokeColor=#82b366;" vertex="1" parent="WIyWlLk6GJQsqaUBKTNV-1">
          <mxGeometry x="160" y="530" width="120" height="60" as="geometry" />
        </mxCell>
        <mxCell id="dO6GdO4cNxpikTKNABMN-37" value="" style="edgeStyle=orthogonalEdgeStyle;rounded=1;orthogonalLoop=1;jettySize=auto;html=1;fillColor=#f8cecc;strokeColor=#b85450;" edge="1" parent="WIyWlLk6GJQsqaUBKTNV-1" source="dO6GdO4cNxpikTKNABMN-34" target="dO6GdO4cNxpikTKNABMN-36">
          <mxGeometry relative="1" as="geometry" />
        </mxCell>
        <mxCell id="dO6GdO4cNxpikTKNABMN-34" value="使用pk&lt;sub&gt;root&lt;/sub&gt;派生pk&lt;sub&gt;i&lt;/sub&gt;" style="rounded=1;whiteSpace=wrap;html=1;fillColor=#f8cecc;strokeColor=#b85450;" vertex="1" parent="WIyWlLk6GJQsqaUBKTNV-1">
          <mxGeometry x="540" y="80" width="120" height="50" as="geometry" />
        </mxCell>
        <mxCell id="dO6GdO4cNxpikTKNABMN-39" value="" style="edgeStyle=orthogonalEdgeStyle;rounded=1;orthogonalLoop=1;jettySize=auto;html=1;fillColor=#f8cecc;strokeColor=#b85450;" edge="1" parent="WIyWlLk6GJQsqaUBKTNV-1" source="dO6GdO4cNxpikTKNABMN-36">
          <mxGeometry relative="1" as="geometry">
            <mxPoint x="600" y="259" as="targetPoint" />
          </mxGeometry>
        </mxCell>
        <mxCell id="dO6GdO4cNxpikTKNABMN-36" value="根据pk&lt;sub&gt;i&lt;/sub&gt;筛选泄露交易" style="rounded=1;whiteSpace=wrap;html=1;fillColor=#f8cecc;strokeColor=#b85450;" vertex="1" parent="WIyWlLk6GJQsqaUBKTNV-1">
          <mxGeometry x="540" y="169" width="120" height="50" as="geometry" />
        </mxCell>
        <mxCell id="dO6GdO4cNxpikTKNABMN-43" value="" style="edgeStyle=orthogonalEdgeStyle;rounded=1;orthogonalLoop=1;jettySize=auto;html=1;fillColor=#f8cecc;strokeColor=#b85450;" edge="1" parent="WIyWlLk6GJQsqaUBKTNV-1" source="dO6GdO4cNxpikTKNABMN-40" target="dO6GdO4cNxpikTKNABMN-42">
          <mxGeometry relative="1" as="geometry" />
        </mxCell>
        <mxCell id="dO6GdO4cNxpikTKNABMN-40" value="根据泄露随机数提取sk&lt;sub&gt;i&lt;/sub&gt;" style="whiteSpace=wrap;html=1;rounded=1;fillColor=#f8cecc;strokeColor=#b85450;" vertex="1" parent="WIyWlLk6GJQsqaUBKTNV-1">
          <mxGeometry x="540" y="259" width="120" height="50" as="geometry" />
        </mxCell>
        <mxCell id="dO6GdO4cNxpikTKNABMN-45" value="" style="edgeStyle=orthogonalEdgeStyle;rounded=1;orthogonalLoop=1;jettySize=auto;html=1;fillColor=#f8cecc;strokeColor=#b85450;" edge="1" parent="WIyWlLk6GJQsqaUBKTNV-1" source="dO6GdO4cNxpikTKNABMN-42" target="dO6GdO4cNxpikTKNABMN-44">
          <mxGeometry relative="1" as="geometry" />
        </mxCell>
        <mxCell id="dO6GdO4cNxpikTKNABMN-42" value="使用sk&lt;sub&gt;i&lt;/sub&gt;计算派生密钥集合skset&lt;sub&gt;i&lt;/sub&gt;" style="whiteSpace=wrap;html=1;rounded=1;fillColor=#f8cecc;strokeColor=#b85450;" vertex="1" parent="WIyWlLk6GJQsqaUBKTNV-1">
          <mxGeometry x="540" y="349" width="120" height="50" as="geometry" />
        </mxCell>
        <mxCell id="dO6GdO4cNxpikTKNABMN-47" value="" style="edgeStyle=orthogonalEdgeStyle;rounded=1;orthogonalLoop=1;jettySize=auto;html=1;fillColor=#f8cecc;strokeColor=#b85450;" edge="1" parent="WIyWlLk6GJQsqaUBKTNV-1" source="dO6GdO4cNxpikTKNABMN-44" target="dO6GdO4cNxpikTKNABMN-46">
          <mxGeometry relative="1" as="geometry" />
        </mxCell>
        <mxCell id="dO6GdO4cNxpikTKNABMN-44" value="基于skset&lt;sub&gt;i&lt;/sub&gt;筛选隐蔽交易" style="whiteSpace=wrap;html=1;rounded=1;fillColor=#f8cecc;strokeColor=#b85450;" vertex="1" parent="WIyWlLk6GJQsqaUBKTNV-1">
          <mxGeometry x="540" y="440" width="120" height="50" as="geometry" />
        </mxCell>
        <mxCell id="dO6GdO4cNxpikTKNABMN-46" value="根据输入签名以及密钥提取随机数" style="whiteSpace=wrap;html=1;fillColor=#f8cecc;strokeColor=#b85450;rounded=1;" vertex="1" parent="WIyWlLk6GJQsqaUBKTNV-1">
          <mxGeometry x="540" y="530" width="120" height="60" as="geometry" />
        </mxCell>
        <mxCell id="dO6GdO4cNxpikTKNABMN-49" value="初始化阶段" style="text;html=1;align=center;verticalAlign=middle;whiteSpace=wrap;rounded=0;fillColor=#dae8fc;fontStyle=1;strokeColor=#6c8ebf;" vertex="1" parent="WIyWlLk6GJQsqaUBKTNV-1">
          <mxGeometry x="80" y="85" width="70" height="30" as="geometry" />
        </mxCell>
        <mxCell id="dO6GdO4cNxpikTKNABMN-51" value="嵌入阶段&lt;span style=&quot;color: rgba(0, 0, 0, 0); font-family: monospace; font-size: 0px; text-align: start; text-wrap: nowrap;&quot;&gt;%3CmxGraphModel%3E%3Croot%3E%3CmxCell%20id%3D%220%22%2F%3E%3CmxCell%20id%3D%221%22%20parent%3D%220%22%2F%3E%3CmxCell%20id%3D%222%22%20value%3D%22%E5%88%9D%E5%A7%8B%E5%8C%96%E9%98%B6%E6%AE%B5%22%20style%3D%22text%3Bhtml%3D1%3Balign%3Dcenter%3BverticalAlign%3Dmiddle%3BwhiteSpace%3Dwrap%3Brounded%3D0%3BfillColor%3Dnone%3BfontColor%3D%23000000%3BfontStyle%3D1%22%20vertex%3D%221%22%20parent%3D%221%22%3E%3CmxGeometry%20x%3D%2280%22%20y%3D%2285%22%20width%3D%2270%22%20height%3D%2230%22%20as%3D%22geometry%22%2F%3E%3C%2FmxCell%3E%3C%2Froot%3E%3C%2FmxGraphModel%3E&lt;/span&gt;" style="text;html=1;align=center;verticalAlign=middle;whiteSpace=wrap;rounded=0;fillColor=#d5e8d4;fontStyle=1;strokeColor=#82b366;" vertex="1" parent="WIyWlLk6GJQsqaUBKTNV-1">
          <mxGeometry x="80" y="218" width="70" height="30" as="geometry" />
        </mxCell>
        <mxCell id="dO6GdO4cNxpikTKNABMN-52" value="提取阶段&lt;span style=&quot;color: rgba(0, 0, 0, 0); font-family: monospace; font-size: 0px; text-align: start; text-wrap: nowrap;&quot;&gt;%3CmxGraphModel%3E%3Croot%3E%3CmxCell%20id%3D%220%22%2F%3E%3CmxCell%20id%3D%221%22%20parent%3D%220%22%2F%3E%3CmxCell%20id%3D%222%22%20value%3D%22%E5%88%9D%E5%A7%8B%E5%8C%96%E9%98%B6%E6%AE%B5%22%20style%3D%22text%3Bhtml%3D1%3Balign%3Dcenter%3BverticalAlign%3Dmiddle%3BwhiteSpace%3Dwrap%3Brounded%3D0%3BfillColor%3Dnone%3BfontColor%3D%23000000%3BfontStyle%3D1%22%20vertex%3D%221%22%20parent%3D%221%22%3E%3CmxGeometry%20x%3D%2280%22%20y%3D%2285%22%20width%3D%2270%22%20height%3D%2230%22%20as%3D%22geometry%22%2F%3E%3C%2FmxCell%3E%3C%2Froot%3E%3C%2FmxGraphModel%3E&lt;/span&gt;" style="text;html=1;align=center;verticalAlign=middle;whiteSpace=wrap;rounded=0;fillColor=#f8cecc;fontStyle=1;strokeColor=#b85450;" vertex="1" parent="WIyWlLk6GJQsqaUBKTNV-1">
          <mxGeometry x="460" y="90" width="70" height="30" as="geometry" />
        </mxCell>
      </root>
    </mxGraphModel>
  </diagram>
</mxfile>
